<svg fill="#fff" viewBox="0 0 32 32" xmlns="http://www.w3.org/2000/svg"><path d="M16 11.25A4.75 4.75 0 1 0 20.75 16 4.756 4.756 0 0 0 16 11.25zm0 8A3.25 3.25 0 1 1 19.25 16 3.254 3.254 0 0 1 16 19.25zm0-10.5a.75.75 0 0 0 .75-.75V7a.75.75 0 0 0-1.5 0v1c0 .414.336.75.75.75zm0 14.5a.75.75 0 0 0-.75.75v1a.75.75 0 0 0 1.5 0v-1a.75.75 0 0 0-.75-.75zm-8-8H7a.75.75 0 0 0 0 1.5h1a.75.75 0 0 0 0-1.5zm17 0h-1a.75.75 0 0 0 0 1.5h1a.75.75 0 0 0 0-1.5zM10.166 9.105a.75.75 0 0 0-1.06 1.061l.707.707a.75.75 0 0 0 1.06-1.06zm12.022 12.02a.75.75 0 1 0-1.062 1.062l.707.707a.75.75 0 1 0 1.062-1.062zm-12.375 0-.707.707a.75.75 0 0 0 1.061 1.062l.707-.707a.75.75 0 0 0-1.061-1.063zm12.019-12.02-.707.707a.75.75 0 0 0 1.063 1.061l.707-.707a.75.75 0 0 0-1.062-1.06z"/></svg>